<?xml version="1.0" encoding="utf-8"?>
<!-- Generator: Adobe Illustrator 17.0.0, SVG Export Plug-In . SVG Version: 6.00 Build 0)  -->
<!DOCTYPE svg PUBLIC "-//W3C//DTD SVG 1.1//EN" "http://www.w3.org/Graphics/SVG/1.1/DTD/svg11.dtd">
<svg version="1.1" id="Layer_1" xmlns="http://www.w3.org/2000/svg" xmlns:xlink="http://www.w3.org/1999/xlink" x="0px" y="0px"
	 width="76.333px" height="76.333px" viewBox="-2.167 -18.08 76.333 76.333" enable-background="new -2.167 -18.08 76.333 76.333"
	 xml:space="preserve">
<g>
	<defs>
		<circle id="SVGID_1_" cx="36" cy="20.087" r="38.167"/>
	</defs>
	<clipPath id="SVGID_2_">
		<use xlink:href="#SVGID_1_"  overflow="visible"/>
	</clipPath>
	<path clip-path="url(#SVGID_2_)" fill="#03D6C1" d="M88.5,29.263c0,0-25.292,3.412-38.654-1.476
		c-7.59-2.776-16.811-6.261-31.946-0.555c-9.543,3.599-33.4,2.031-33.4,2.031v-54.51h104V29.263z"/>
	<path clip-path="url(#SVGID_2_)" fill="#00A79D" d="M88.5,32.629c0,0-25.292,2.506-38.654-2.382
		c-7.59-2.776-16.811-6.261-31.946-0.555c-9.543,3.598-33.4,3.436-33.4,3.436v32.625h104V32.629z"/>
	<path clip-path="url(#SVGID_2_)" fill="#FFFFFF" d="M27.922,13.209c0,2.988-0.737,5.519-2.21,7.594
		c-1.639,2.344-3.89,3.516-6.753,3.516c-0.809,0-1.681-0.156-2.615-0.467c-2.075-0.664-3.558-1.815-4.45-3.455
		c-0.768-1.41-1.151-3.299-1.151-5.664c0-3.071,0.735-5.778,2.21-8.123c1.701-2.759,4.004-4.138,6.909-4.138
		c2.552,0,4.585,1.192,6.1,3.578C27.269,8.105,27.922,10.491,27.922,13.209z M24.934,12.928c0-4.315-1.39-6.898-4.17-7.749
		c-0.291-0.082-0.623-0.125-0.996-0.125c-1.163,0-2.324,0.519-3.486,1.556c-1.847,1.681-2.77,4.679-2.77,8.994
		c0,0.395,0.082,0.945,0.249,1.65c0.353,1.598,0.881,2.749,1.586,3.454c0.809,0.831,1.992,1.245,3.548,1.245
		c2.116,0,3.714-1.027,4.793-3.081C24.519,17.255,24.934,15.273,24.934,12.928z"/>
	<path clip-path="url(#SVGID_2_)" fill="#FFFFFF" d="M42.219,27.799c-1.73-13.337-3.283-20.006-4.66-20.006
		c-1.1,0-3.028,3.133-5.78,9.401c-1.968,4.51-3.52,8.427-4.66,11.752 M27.119,28.947l-1.269,4.814
		c-0.374,0.422-0.618,2.465-0.737,6.134c-0.511,0.726-1.16,1.09-1.945,1.09c-0.828,0-1.672-0.336-2.536-1.004
		c-0.866-0.668-1.298-1.385-1.298-2.15c0-0.267,0.353-1.336,1.062-3.21c0.785-2.713,2.064-6.783,3.833-12.21
		C29.5,8.386,33.883,1.371,37.384,1.371c3.422,0,6.056,3.708,7.905,11.122c0.826,3.325,1.592,8.427,2.3,15.305l0.353,4.988
		c0.196,0.879,0.628,2.064,1.298,3.553c-0.04,0.842-0.394,1.53-1.062,2.064c-0.67,0.536-1.455,0.802-2.36,0.802
		c-0.709,0-1.534-0.209-2.477-0.629c-0.513-0.995-0.768-2.18-0.768-3.555c0-0.343,0.019-0.84,0.06-1.491
		c0.038-0.649,0.06-1.127,0.06-1.433l-0.472-4.299"/>
	<path clip-path="url(#SVGID_2_)" fill="#FFFFFF" d="M61.206,20.741c0,0.405-0.107,0.895-0.319,1.47
		c-0.533,1.407-1.535,2.515-3.005,3.324c-1.342,0.724-2.813,1.086-4.411,1.086c-2.621,0-4.635-0.991-6.041-2.973
		c-1.215-1.725-1.822-3.952-1.822-6.68c0-2.259,0.352-4.38,1.054-6.361c0.789-2.259,1.95-4.028,3.485-5.307
		c1.214-1.001,2.45-1.503,3.707-1.503c1.812,0,3.186,0.789,4.124,2.366c0.768,1.278,1.151,2.887,1.151,4.826
		c0,0.874-0.224,1.972-0.671,3.292c-0.533,1.62-1.13,2.43-1.79,2.43c-0.746,0-1.311-0.468-1.694-1.406
		c0.212-0.15,0.511-0.394,0.895-0.736c0.426-0.468,0.639-1.385,0.639-2.749c0-1.321-0.138-2.44-0.415-3.357
		c-0.427-1.385-1.13-2.077-2.11-2.077c-0.682,0-1.428,0.437-2.237,1.31c-0.618,0.661-1.14,1.396-1.566,2.206
		c-1.045,2.046-1.567,4.592-1.567,7.639c0,4.433,1.663,6.649,4.987,6.649c1.428,0,2.557-0.405,3.388-1.215
		c0.34-0.362,0.842-1.119,1.503-2.269c0.447-0.831,0.927-1.247,1.438-1.247c0.341,0,0.64,0.133,0.895,0.4
		C61.078,20.128,61.206,20.422,61.206,20.741z"/>
</g>
</svg>
